# xmcd CD database file
# Copyright (C) 1993-1998 Ti Kan
# 
# Track frame offsets:
#     150
#     6830
#     18382
#     32795
#     44900
#     57875
#     68567
#     78210
# 
# Disc length: 1175 seconds
# 
# Revision: 1
# Processed by: cddbd v1.4b41PL1 Copyright (c) Steve Scherf et al.
# Submitted via: DiscPlay 4.0.4
# 
DISCID=5f049508
DTITLE=Eric Clapton, Jeff Beck, Jimmy Page - Guitar Boogie
DYEAR=1900
DGENRE=
TTITLE0=Choker
TTITLE1=Snake Drive
TTITLE2=Draggin' My Tail
TTITLE3=Steelin'
TTITLE4=Freight Loader
TTITLE5=West Coast Idea
TTITLE6=L.A. Breakdown
TTITLE7=Tribute To Elmore
EXTD=
EXTT0=
EXTT1=
EXTT2=
EXTT3=
EXTT4=
EXTT5=
EXTT6=
EXTT7=
PLAYORDER=
